<?xml version="1.0" standalone="no"?>
<!DOCTYPE svg PUBLIC "-//W3C//DTD SVG 1.1//EN" "http://www.w3.org/Graphics/SVG/1.1/DTD/svg11.dtd">
<svg xmlns="http://www.w3.org/2000/svg" xmlns:xlink="http://www.w3.org/1999/xlink" width="375" zoomAndPan="magnify" viewBox="0 0 375 374.999991" height="375" preserveAspectRatio="xMidYMid meet" version="1.0"><defs><g/></defs><g fill="#153044" fill-opacity="1"><g transform="translate(66.105739, 317.669603)"><g><path d="M 38.328125 -54.96875 C 38.585938 -54.96875 38.804688 -54.875 38.984375 -54.6875 C 39.171875 -54.507812 39.265625 -54.289062 39.265625 -54.03125 L 39.265625 -46.328125 C 39.265625 -46.066406 39.171875 -45.84375 38.984375 -45.65625 C 38.804688 -45.476562 38.585938 -45.390625 38.328125 -45.390625 L 26.390625 -45.390625 C 26.128906 -45.390625 26 -45.257812 26 -45 L 26 -0.9375 C 26 -0.675781 25.90625 -0.453125 25.71875 -0.265625 C 25.53125 -0.0859375 25.304688 0 25.046875 0 L 15.859375 0 C 15.597656 0 15.375 -0.0859375 15.1875 -0.265625 C 15.007812 -0.453125 14.921875 -0.675781 14.921875 -0.9375 L 14.921875 -45 C 14.921875 -45.257812 14.789062 -45.390625 14.53125 -45.390625 L 2.984375 -45.390625 C 2.722656 -45.390625 2.5 -45.476562 2.3125 -45.65625 C 2.132812 -45.84375 2.046875 -46.066406 2.046875 -46.328125 L 2.046875 -54.03125 C 2.046875 -54.289062 2.132812 -54.507812 2.3125 -54.6875 C 2.5 -54.875 2.722656 -54.96875 2.984375 -54.96875 Z M 38.328125 -54.96875 "/></g></g></g><g fill="#153044" fill-opacity="1"><g transform="translate(103.639822, 317.669603)"><g><path d="M 30 0 C 29.425781 0 29.0625 -0.257812 28.90625 -0.78125 L 20.96875 -22.453125 C 20.863281 -22.671875 20.734375 -22.78125 20.578125 -22.78125 L 15.625 -22.78125 C 15.363281 -22.78125 15.234375 -22.644531 15.234375 -22.375 L 15.234375 -0.9375 C 15.234375 -0.675781 15.140625 -0.453125 14.953125 -0.265625 C 14.773438 -0.0859375 14.554688 0 14.296875 0 L 5.109375 0 C 4.847656 0 4.625 -0.0859375 4.4375 -0.265625 C 4.25 -0.453125 4.15625 -0.675781 4.15625 -0.9375 L 4.15625 -54.03125 C 4.15625 -54.289062 4.25 -54.507812 4.4375 -54.6875 C 4.625 -54.875 4.847656 -54.96875 5.109375 -54.96875 L 24.265625 -54.96875 C 27.359375 -54.96875 30.109375 -54.273438 32.515625 -52.890625 C 34.921875 -51.503906 36.773438 -49.550781 38.078125 -47.03125 C 39.390625 -44.519531 40.046875 -41.644531 40.046875 -38.40625 C 40.046875 -35.050781 39.3125 -32.144531 37.84375 -29.6875 C 36.382812 -27.226562 34.316406 -25.394531 31.640625 -24.1875 C 31.378906 -24.082031 31.300781 -23.898438 31.40625 -23.640625 L 40.359375 -1.09375 C 40.410156 -0.988281 40.4375 -0.859375 40.4375 -0.703125 C 40.4375 -0.234375 40.148438 0 39.578125 0 Z M 15.625 -45.46875 C 15.363281 -45.46875 15.234375 -45.335938 15.234375 -45.078125 L 15.234375 -31.640625 C 15.234375 -31.378906 15.363281 -31.25 15.625 -31.25 L 22.453125 -31.25 C 24.390625 -31.25 25.960938 -31.890625 27.171875 -33.171875 C 28.378906 -34.460938 28.984375 -36.179688 28.984375 -38.328125 C 28.984375 -40.523438 28.378906 -42.265625 27.171875 -43.546875 C 25.960938 -44.828125 24.390625 -45.46875 22.453125 -45.46875 Z M 15.625 -45.46875 "/></g></g></g><g fill="#153044" fill-opacity="1"><g transform="translate(142.508841, 317.669603)"><g><path d="M 33.21875 0 C 32.644531 0 32.28125 -0.257812 32.125 -0.78125 L 30.3125 -8.484375 C 30.257812 -8.691406 30.128906 -8.796875 29.921875 -8.796875 L 15.234375 -8.796875 C 15.023438 -8.796875 14.894531 -8.691406 14.84375 -8.484375 L 13.03125 -0.78125 C 12.875 -0.257812 12.535156 0 12.015625 0 L 2.515625 0 C 1.828125 0 1.566406 -0.335938 1.734375 -1.015625 L 15.859375 -54.1875 C 16.015625 -54.707031 16.382812 -54.96875 16.96875 -54.96875 L 28.34375 -54.96875 C 28.925781 -54.96875 29.296875 -54.707031 29.453125 -54.1875 L 43.578125 -1.015625 L 43.65625 -0.703125 C 43.65625 -0.234375 43.367188 0 42.796875 0 Z M 16.96875 -17.828125 C 16.914062 -17.671875 16.941406 -17.550781 17.046875 -17.46875 C 17.148438 -17.394531 17.253906 -17.359375 17.359375 -17.359375 L 27.71875 -17.359375 C 27.820312 -17.359375 27.925781 -17.394531 28.03125 -17.46875 C 28.132812 -17.550781 28.160156 -17.671875 28.109375 -17.828125 L 22.703125 -40.59375 C 22.640625 -40.8125 22.554688 -40.921875 22.453125 -40.921875 C 22.347656 -40.921875 22.269531 -40.8125 22.21875 -40.59375 Z M 16.96875 -17.828125 "/></g></g></g><g fill="#153044" fill-opacity="1"><g transform="translate(184.047728, 317.669603)"><g><path d="M 16.734375 0 C 16.148438 0 15.78125 -0.257812 15.625 -0.78125 L 1.96875 -53.953125 L 1.96875 -54.265625 C 1.96875 -54.734375 2.253906 -54.96875 2.828125 -54.96875 L 12.796875 -54.96875 C 13.378906 -54.96875 13.722656 -54.679688 13.828125 -54.109375 L 21.75 -17.59375 C 21.800781 -17.382812 21.878906 -17.28125 21.984375 -17.28125 C 22.085938 -17.28125 22.164062 -17.382812 22.21875 -17.59375 L 30.078125 -54.109375 C 30.179688 -54.679688 30.519531 -54.96875 31.09375 -54.96875 L 40.75 -54.96875 C 41.488281 -54.96875 41.78125 -54.628906 41.625 -53.953125 L 27.796875 -0.78125 C 27.640625 -0.257812 27.273438 0 26.703125 0 Z M 16.734375 0 "/></g></g></g><g fill="#153044" fill-opacity="1"><g transform="translate(223.859042, 317.669603)"><g><path d="M 37.609375 -46.40625 C 37.609375 -46.144531 37.515625 -45.921875 37.328125 -45.734375 C 37.148438 -45.554688 36.929688 -45.46875 36.671875 -45.46875 L 15.625 -45.46875 C 15.363281 -45.46875 15.234375 -45.335938 15.234375 -45.078125 L 15.234375 -32.828125 C 15.234375 -32.566406 15.363281 -32.4375 15.625 -32.4375 L 28.75 -32.4375 C 29.007812 -32.4375 29.226562 -32.34375 29.40625 -32.15625 C 29.59375 -31.976562 29.6875 -31.753906 29.6875 -31.484375 L 29.6875 -23.875 C 29.6875 -23.613281 29.59375 -23.390625 29.40625 -23.203125 C 29.226562 -23.023438 29.007812 -22.9375 28.75 -22.9375 L 15.625 -22.9375 C 15.363281 -22.9375 15.234375 -22.800781 15.234375 -22.53125 L 15.234375 -9.890625 C 15.234375 -9.628906 15.363281 -9.5 15.625 -9.5 L 36.671875 -9.5 C 36.929688 -9.5 37.148438 -9.40625 37.328125 -9.21875 C 37.515625 -9.039062 37.609375 -8.820312 37.609375 -8.5625 L 37.609375 -0.9375 C 37.609375 -0.675781 37.515625 -0.453125 37.328125 -0.265625 C 37.148438 -0.0859375 36.929688 0 36.671875 0 L 5.109375 0 C 4.847656 0 4.625 -0.0859375 4.4375 -0.265625 C 4.25 -0.453125 4.15625 -0.675781 4.15625 -0.9375 L 4.15625 -54.03125 C 4.15625 -54.289062 4.25 -54.507812 4.4375 -54.6875 C 4.625 -54.875 4.847656 -54.96875 5.109375 -54.96875 L 36.671875 -54.96875 C 36.929688 -54.96875 37.148438 -54.875 37.328125 -54.6875 C 37.515625 -54.507812 37.609375 -54.289062 37.609375 -54.03125 Z M 37.609375 -46.40625 "/></g></g></g><g fill="#153044" fill-opacity="1"><g transform="translate(260.21524, 317.669603)"><g><path d="M 5.109375 0 C 4.847656 0 4.625 -0.0859375 4.4375 -0.265625 C 4.25 -0.453125 4.15625 -0.675781 4.15625 -0.9375 L 4.15625 -54.03125 C 4.15625 -54.289062 4.25 -54.507812 4.4375 -54.6875 C 4.625 -54.875 4.847656 -54.96875 5.109375 -54.96875 L 14.296875 -54.96875 C 14.554688 -54.96875 14.773438 -54.875 14.953125 -54.6875 C 15.140625 -54.507812 15.234375 -54.289062 15.234375 -54.03125 L 15.234375 -9.890625 C 15.234375 -9.628906 15.363281 -9.5 15.625 -9.5 L 36.671875 -9.5 C 36.929688 -9.5 37.148438 -9.40625 37.328125 -9.21875 C 37.515625 -9.039062 37.609375 -8.820312 37.609375 -8.5625 L 37.609375 -0.9375 C 37.609375 -0.675781 37.515625 -0.453125 37.328125 -0.265625 C 37.148438 -0.0859375 36.929688 0 36.671875 0 Z M 5.109375 0 "/></g></g></g><g fill="#153044" fill-opacity="1"><g transform="translate(295.629141, 317.669603)"><g><path d="M 20.65625 0.625 C 17.039062 0.625 13.867188 -0.015625 11.140625 -1.296875 C 8.421875 -2.578125 6.316406 -4.378906 4.828125 -6.703125 C 3.335938 -9.035156 2.59375 -11.722656 2.59375 -14.765625 L 2.59375 -16.8125 C 2.59375 -17.070312 2.679688 -17.289062 2.859375 -17.46875 C 3.046875 -17.65625 3.269531 -17.75 3.53125 -17.75 L 12.5625 -17.75 C 12.820312 -17.75 13.039062 -17.65625 13.21875 -17.46875 C 13.40625 -17.289062 13.5 -17.070312 13.5 -16.8125 L 13.5 -15.3125 C 13.5 -13.476562 14.179688 -11.945312 15.546875 -10.71875 C 16.910156 -9.488281 18.742188 -8.875 21.046875 -8.875 C 23.085938 -8.875 24.644531 -9.394531 25.71875 -10.4375 C 26.789062 -11.488281 27.328125 -12.828125 27.328125 -14.453125 C 27.328125 -15.648438 26.984375 -16.679688 26.296875 -17.546875 C 25.617188 -18.410156 24.664062 -19.222656 23.4375 -19.984375 C 22.207031 -20.742188 20.3125 -21.78125 17.75 -23.09375 C 14.601562 -24.65625 12.035156 -26.117188 10.046875 -27.484375 C 8.054688 -28.847656 6.351562 -30.601562 4.9375 -32.75 C 3.53125 -34.894531 2.828125 -37.484375 2.828125 -40.515625 C 2.828125 -43.554688 3.546875 -46.210938 4.984375 -48.484375 C 6.421875 -50.765625 8.445312 -52.519531 11.0625 -53.75 C 13.6875 -54.976562 16.675781 -55.59375 20.03125 -55.59375 C 23.53125 -55.59375 26.640625 -54.925781 29.359375 -53.59375 C 32.085938 -52.257812 34.210938 -50.390625 35.734375 -47.984375 C 37.253906 -45.578125 38.015625 -42.800781 38.015625 -39.65625 L 38.015625 -38.09375 C 38.015625 -37.820312 37.921875 -37.59375 37.734375 -37.40625 C 37.546875 -37.226562 37.320312 -37.140625 37.0625 -37.140625 L 28.03125 -37.140625 C 27.769531 -37.140625 27.546875 -37.226562 27.359375 -37.40625 C 27.179688 -37.59375 27.09375 -37.820312 27.09375 -38.09375 L 27.09375 -39.5 C 27.09375 -41.382812 26.4375 -42.953125 25.125 -44.203125 C 23.820312 -45.460938 22.046875 -46.09375 19.796875 -46.09375 C 17.910156 -46.09375 16.429688 -45.609375 15.359375 -44.640625 C 14.285156 -43.671875 13.75 -42.320312 13.75 -40.59375 C 13.75 -39.394531 14.0625 -38.347656 14.6875 -37.453125 C 15.3125 -36.566406 16.273438 -35.71875 17.578125 -34.90625 C 18.890625 -34.09375 20.882812 -33.035156 23.5625 -31.734375 L 25.203125 -30.78125 C 28.242188 -29.101562 30.613281 -27.648438 32.3125 -26.421875 C 34.019531 -25.191406 35.445312 -23.632812 36.59375 -21.75 C 37.75 -19.863281 38.328125 -17.585938 38.328125 -14.921875 C 38.328125 -10.160156 36.710938 -6.378906 33.484375 -3.578125 C 30.265625 -0.773438 25.988281 0.625 20.65625 0.625 Z M 20.65625 0.625 "/></g></g></g><g fill="#cee8f2" fill-opacity="1"><g transform="translate(45.632187, 254.588602)"><g><path d="M 62.628906 -90.664062 L 126.75 0 L 186.992188 0 L 106.171875 -101.398438 L 184.007812 -202.796875 L 126.75 -202.796875 L 62.628906 -112.136719 L 62.628906 -202.796875 L 17.894531 -202.796875 L 17.894531 0 L 62.628906 0 Z M 62.628906 -90.664062 "/></g></g></g><path stroke-linecap="butt" transform="matrix(1.609282, 0, 0, 1.609282, -57.498789, -64.965677)" fill="none" stroke-linejoin="miter" d="M 97.42477 136.671023 L 137.286293 192.999515 L 174.703499 192.999515 L 124.482156 129.974035 L 172.846596 66.994674 L 137.286293 66.994674 L 97.42477 123.323166 L 97.42477 66.994674 L 69.646469 66.994674 L 69.646469 192.999515 L 97.42477 192.999515 Z M 97.42477 136.671023 " stroke="#153044" stroke-width="6.949762" stroke-opacity="1" stroke-miterlimit="4"/><g fill="#ffd2d2" fill-opacity="1"><g transform="translate(213.756732, 254.588602)"><g><path d="M 115.714844 -59.347656 C 115.714844 -45.929688 104.382812 -34.894531 90.960938 -34.894531 L 62.628906 -34.894531 L 62.628906 -83.804688 L 90.960938 -83.804688 C 104.382812 -83.804688 115.714844 -72.46875 115.714844 -59.347656 Z M 101.695312 -144.046875 C 101.695312 -131.222656 90.960938 -120.484375 78.136719 -120.484375 L 62.628906 -120.484375 L 62.628906 -167.605469 L 78.136719 -167.605469 C 90.960938 -167.605469 101.695312 -157.167969 101.695312 -144.046875 Z M 161.34375 -58.15625 C 161.34375 -85.59375 142.851562 -103.785156 120.1875 -109.152344 C 135.398438 -116.011719 144.34375 -131.519531 144.34375 -152.097656 C 144.34375 -179.835938 122.273438 -202.796875 87.679688 -202.796875 L 17.894531 -202.796875 L 17.894531 0 L 99.90625 0 C 138.679688 0 161.34375 -23.261719 161.34375 -58.15625 Z M 161.34375 -58.15625 "/></g></g></g><path stroke-linecap="butt" transform="matrix(1.609282, 0, 0, 1.609282, 106.175088, -64.965677)" fill="none" stroke-linejoin="miter" d="M 133.173161 156.126029 C 133.173161 164.451752 126.160621 171.328362 117.791206 171.328362 L 100.190676 171.328362 L 100.190676 140.923695 L 117.791206 140.923695 C 126.160621 140.923695 133.173161 147.982355 133.173161 156.126029 Z M 124.488194 103.506489 C 124.488194 111.47054 117.791206 118.121409 109.827154 118.121409 L 100.190676 118.121409 L 100.190676 88.847876 L 109.827154 88.847876 C 117.791206 88.847876 124.488194 95.316696 124.488194 103.506489 Z M 161.541302 156.849371 C 161.541302 139.792562 150.050348 128.527349 135.979148 125.180069 C 145.436004 120.924969 150.95574 111.288491 150.95574 98.484354 C 150.95574 81.247923 137.246212 66.994674 115.754681 66.994674 L 72.412375 66.994674 L 72.412375 192.999515 L 123.357061 192.999515 C 147.47253 192.999515 161.541302 178.566643 161.541302 156.849371 Z M 161.541302 156.849371 " stroke="#ed9292" stroke-width="6.949762" stroke-opacity="1" stroke-miterlimit="4"/></svg>